<svg width="150" height="150" viewBox="0 0 150 150" fill="none" xmlns="http://www.w3.org/2000/svg">
<path fill-rule="evenodd" clip-rule="evenodd" d="M141.424 80.6765C141.387 75.6029 149.905 76.3677 149.906 80.8177L149.918 115.966C149.923 131.563 131.243 148.573 117.313 148.704C111.414 148.759 105.508 149.131 99.613 148.87C94.5052 148.645 94.8245 140.496 99.2063 140.28L116.769 139.414C128.187 138.85 141.76 127.029 141.667 114.09L141.424 80.6765ZM141.506 68.7617C141.469 73.8353 149.986 73.0705 149.988 68.6205L150 33.472C150.004 17.8745 131.326 0.864607 117.395 0.734017C111.496 0.678957 105.589 0.307657 99.6945 0.568132C94.5874 0.793312 94.9068 8.94217 99.2878 9.15813L116.85 10.025C128.268 10.5883 141.842 22.4085 141.748 35.3489L141.506 68.7617ZM22.3003 70.6577L22.1481 50.6809C22.1184 46.7392 24.1911 38.8911 31.881 33.8793L67.7021 10.5332C71.8691 7.81767 78.508 7.97862 82.613 10.7881L121.404 37.3332C125.505 40.1398 120.802 47.4119 116.485 44.5488L78.6078 19.4331C76.1119 17.7785 72.8269 18.2063 70.113 19.9816L35.4498 42.6563C32.6696 44.4747 31.0008 48.2364 30.9508 51.5626L30.6576 70.9507C30.5843 75.772 22.339 75.7647 22.3003 70.6577ZM46.0354 50.8115L71.9721 33.8305C73.7886 32.6411 76.6684 32.9002 78.4757 34.1023L84.1274 37.8633L102.238 50.0647C104.462 51.5626 105.414 56.6224 103.156 58.0674L77.5214 74.4625C76.1406 75.3456 73.9721 75.2066 72.6042 74.3014L45.4448 56.3379C43.9022 55.3172 44.4878 51.8251 46.0354 50.8115ZM59.4421 52.3412L73.1609 43.3594C74.1211 42.7304 75.6451 42.8674 76.6008 43.5034L79.5893 45.4926L89.1684 51.9459C90.3451 52.7386 90.8487 55.4147 89.6544 56.1784L76.0951 64.8503C75.3646 65.3176 74.218 65.2435 73.4942 64.7649L59.1291 55.2636C58.313 54.7236 58.6232 52.877 59.4421 52.3412ZM77.0949 96.0349C74.3876 97.6128 73.9251 97.4334 71.2673 95.7187L50.177 82.1082C46.4547 79.7059 41.2299 86.3935 44.6999 88.8009L71.5591 107.438C73.6858 108.914 75.1451 108.92 77.4759 107.374L104.548 89.4105C107.434 87.495 103.264 80.7743 99.5058 82.9663L77.0956 96.0341L77.0949 96.0349ZM65.6971 138.302C68.1137 139.945 44.9522 139.976 37.9536 139.705C20.2798 139.019 8.64347 128.721 8.63289 116.04L8.56455 33.6654C8.54972 15.6432 22.7401 7.53038 52.7408 9.02614C58.1904 9.29791 58.1848 0.723428 53.1735 0.405071C33.9247 -0.818247 -0.0260598 -1.34908 1.50106e-05 31.1975L0.0761251 116.918C0.0958574 139.279 17.838 148.099 36.7852 149.115C49.4652 149.795 65.1348 149.949 72.2497 145.497C88.0122 135.633 104.197 126.779 119.568 115.958C125.871 111.519 128.553 104.412 128.518 97.6856L128.295 54.7313C128.273 50.7119 119.653 50.777 119.646 55.2608L119.579 94.7775C119.532 100.91 117.206 105.619 112.139 109.359L78.7363 130.133C74.6658 132.873 72.7451 131.245 71.1341 130.332C59.5703 123.779 47.7528 114.681 37.3919 108.029C33.5984 105.594 31.1157 103.546 31.0678 100.095L31.3722 86.3928C31.5096 80.1824 22.2756 80.5148 22.3193 85.9994L22.437 100.828C22.9049 109.504 27.1206 111.72 30.8599 114.605L65.6971 138.302Z" fill="#299B65"/>
</svg>
